<svg width="18" height="6" viewBox="0 0 18 6" fill="none" xmlns="http://www.w3.org/2000/svg">
<path d="M7.5 6C7.21667 6 6.97917 5.90417 6.7875 5.7125C6.59583 5.52083 6.5 5.28333 6.5 5V4H8V4.5H10V3.5H7.5C7.21667 3.5 6.97917 3.40417 6.7875 3.2125C6.59583 3.02083 6.5 2.78333 6.5 2.5V1C6.5 0.716667 6.59583 0.479167 6.7875 0.2875C6.97917 0.0958333 7.21667 0 7.5 0H10.5C10.7833 0 11.0208 0.0958333 11.2125 0.2875C11.4042 0.479167 11.5 0.716667 11.5 1V2H10V1.5H8V2.5H10.5C10.7833 2.5 11.0208 2.59583 11.2125 2.7875C11.4042 2.97917 11.5 3.21667 11.5 3.5V5C11.5 5.28333 11.4042 5.52083 11.2125 5.7125C11.0208 5.90417 10.7833 6 10.5 6H7.5V6M14 6C13.7167 6 13.4792 5.90417 13.2875 5.7125C13.0958 5.52083 13 5.28333 13 5V4H14.5V4.5H16.5V3.5H14C13.7167 3.5 13.4792 3.40417 13.2875 3.2125C13.0958 3.02083 13 2.78333 13 2.5V1C13 0.716667 13.0958 0.479167 13.2875 0.2875C13.4792 0.0958333 13.7167 0 14 0H17C17.2833 0 17.5208 0.0958333 17.7125 0.2875C17.9042 0.479167 18 0.716667 18 1V2H16.5V1.5H14.5V2.5H17C17.2833 2.5 17.5208 2.59583 17.7125 2.7875C17.9042 2.97917 18 3.21667 18 3.5V5C18 5.28333 17.9042 5.52083 17.7125 5.7125C17.5208 5.90417 17.2833 6 17 6H14V6M1 6C0.716667 6 0.479167 5.90417 0.2875 5.7125C0.0958333 5.52083 0 5.28333 0 5V1C0 0.716667 0.0958333 0.479167 0.2875 0.2875C0.479167 0.0958333 0.716667 0 1 0H4C4.28333 0 4.52083 0.0958333 4.7125 0.2875C4.90417 0.479167 5 0.716667 5 1V2H3.5V1.5H1.5V4.5H3.5V4H5V5C5 5.28333 4.90417 5.52083 4.7125 5.7125C4.52083 5.90417 4.28333 6 4 6H1V6" fill="#894E4F"/>
</svg>
