<svg width="17" height="17" viewBox="0 0 17 17" fill="none" xmlns="http://www.w3.org/2000/svg">
<path d="M13.5 6L12.5625 3.9375L10.5 3L12.5625 2.0625L13.5 0L14.4375 2.0625L16.5 3L14.4375 3.9375L13.5 6V6M13.5 16.5L12.5625 14.4375L10.5 13.5L12.5625 12.5625L13.5 10.5L14.4375 12.5625L16.5 13.5L14.4375 14.4375L13.5 16.5V16.5M6 14.25L4.125 10.125L0 8.25L4.125 6.375L6 2.25L7.875 6.375L12 8.25L7.875 10.125L6 14.25V14.25M6 10.6125L6.75 9L8.3625 8.25L6.75 7.5L6 5.8875L5.25 7.5L3.6375 8.25L5.25 9L6 10.6125V10.6125M6 8.25V8.25V8.25V8.25V8.25V8.25V8.25V8.25V8.25V8.25" fill="#763E3F"/>
</svg>
