<svg width="222" height="44" viewBox="0 0 222 44" fill="none" xmlns="http://www.w3.org/2000/svg">
<g clip-path="url(#clip0_86_68)">
<path d="M147.579 0.0185547H186.248V7.07355H170.908V44.1889H163.238V7.07355H147.579V0.0185547Z" fill="#2D2D2D"/>
<path d="M83.9838 0.0185547V7.07355H52.9884V18.4229H77.9149V25.4779H52.9884V37.134H83.9838V44.1889H45.3186V7.07355H45.3154V0.0185547H83.9838Z" fill="#2D2D2D"/>
<path d="M103.292 0.0366211H93.2549L129.206 44.207H139.273L121.295 22.137L139.244 0.0703203L129.206 0.0856535L116.27 15.9677L103.292 0.0366211Z" fill="#2D2D2D"/>
<path d="M113.592 31.5879L108.565 25.4102L93.2256 44.2409H103.292L113.592 31.5879Z" fill="#2D2D2D"/>
<path fill-rule="evenodd" clip-rule="evenodd" d="M45.5872 44.1888L9.58719 0H0V44.1704H7.66976V9.4414L35.952 44.1888H45.5872Z" fill="#2D2D2D"/>
<path d="M187.972 43.9191C187.41 43.9191 186.932 43.7268 186.532 43.3421C186.132 42.9574 185.934 42.4917 185.94 41.94C185.934 41.4034 186.132 40.9427 186.532 40.558C186.932 40.1733 187.41 39.981 187.972 39.981C188.512 39.981 188.985 40.1733 189.385 40.558C189.791 40.9427 189.993 41.4034 189.999 41.94C189.993 42.3044 189.899 42.6384 189.712 42.9371C189.52 43.2409 189.276 43.4788 188.969 43.6509C188.668 43.8281 188.335 43.9191 187.972 43.9191Z" fill="#2D2D2D"/>
<path d="M201.062 25.3115H204.461V38.2549C204.456 39.4445 204.196 40.4619 203.687 41.3174C203.172 42.1729 202.46 42.8258 201.546 43.2865C200.636 43.742 199.571 43.9749 198.36 43.9749C197.253 43.9749 196.261 43.7775 195.377 43.3928C194.494 43.0081 193.792 42.431 193.278 41.6717C192.758 40.9124 192.503 39.9659 192.503 38.832H195.907C195.912 39.3281 196.027 39.7583 196.245 40.1177C196.463 40.4771 196.764 40.7504 197.149 40.9428C197.538 41.1351 197.986 41.2313 198.49 41.2313C199.036 41.2313 199.503 41.1199 199.882 40.8921C200.262 40.6694 200.553 40.3354 200.756 39.8899C200.953 39.4496 201.057 38.9028 201.062 38.2549V25.3115Z" fill="#2D2D2D"/>
<path d="M218.446 30.3734C218.363 29.5888 217.999 28.9764 217.365 28.541C216.725 28.1006 215.899 27.883 214.886 27.883C214.174 27.883 213.561 27.9893 213.052 28.1968C212.542 28.4094 212.147 28.6929 211.877 29.0523C211.607 29.4117 211.472 29.8217 211.461 30.2824C211.461 30.6671 211.555 31.0011 211.737 31.2796C211.919 31.563 212.163 31.8009 212.48 31.9933C212.791 32.1907 213.14 32.3527 213.519 32.4843C213.904 32.6159 214.289 32.7273 214.673 32.8184L216.445 33.2486C217.157 33.4106 217.848 33.6283 218.508 33.9067C219.168 34.1801 219.766 34.5293 220.29 34.9494C220.816 35.3696 221.231 35.8758 221.538 36.4681C221.844 37.0603 222 37.7537 222 38.5535C222 39.6317 221.72 40.5783 221.153 41.3983C220.587 42.2133 219.771 42.8511 218.7 43.3118C217.635 43.7674 216.346 44.0002 214.829 44.0002C213.363 44.0002 212.085 43.7775 211.009 43.3321C209.929 42.8917 209.086 42.2437 208.478 41.3933C207.87 40.5429 207.543 39.5052 207.496 38.2853H210.864C210.911 38.923 211.119 39.4546 211.472 39.8848C211.83 40.31 212.298 40.6239 212.87 40.8365C213.447 41.044 214.091 41.1503 214.803 41.1503C215.546 41.1503 216.201 41.0389 216.767 40.8213C217.328 40.6036 217.77 40.2999 218.087 39.9051C218.41 39.5153 218.571 39.0547 218.576 38.5283C218.571 38.0474 218.425 37.6474 218.144 37.3336C217.859 37.0198 217.464 36.7566 216.959 36.544C216.45 36.3314 215.858 36.139 215.182 35.972L213.031 35.4354C211.477 35.0456 210.245 34.4534 209.346 33.6587C208.442 32.864 207.995 31.8111 207.995 30.4899C207.995 29.4067 208.296 28.455 208.905 27.64C209.507 26.8251 210.334 26.1923 211.378 25.7418C212.428 25.2863 213.613 25.0635 214.933 25.0635C216.274 25.0635 217.448 25.2863 218.461 25.7418C219.475 26.1923 220.27 26.82 220.847 27.6198C221.423 28.4196 221.725 29.3358 221.741 30.3734H218.446Z" fill="#2D2D2D"/>
</g>
<defs>
<clipPath id="clip0_86_68">
<rect width="222" height="44" fill="white"/>
</clipPath>
</defs>
</svg>
